<svg id="visual" viewBox="0 0 900 600" width="900" height="600" xmlns="http://www.w3.org/2000/svg" xmlns:xlink="http://www.w3.org/1999/xlink" version="1.1"><rect x="0" y="0" width="900" height="600" fill="#1a1d43"></rect><path d="M0 80L16.7 83.2C33.3 86.3 66.7 92.7 100 94.3C133.3 96 166.7 93 200 90C233.3 87 266.7 84 300 78.8C333.3 73.7 366.7 66.3 400 60.2C433.3 54 466.7 49 500 59.7C533.3 70.3 566.7 96.7 600 97.2C633.3 97.7 666.7 72.3 700 72C733.3 71.7 766.7 96.3 800 106.8C833.3 117.3 866.7 113.7 883.3 111.8L900 110L900 0L883.3 0C866.7 0 833.3 0 800 0C766.7 0 733.3 0 700 0C666.7 0 633.3 0 600 0C566.7 0 533.3 0 500 0C466.7 0 433.3 0 400 0C366.7 0 333.3 0 300 0C266.7 0 233.3 0 200 0C166.7 0 133.3 0 100 0C66.7 0 33.3 0 16.7 0L0 0Z" fill="#FFFFFF" stroke-linecap="round" stroke-linejoin="miter"></path></svg>